HIERARCHY
ROOT pelvis
{
	OFFSET -0.274455 -20.661295 3.604011
	CHANNELS 6 Xposition Yposition Zposition Zrotation Yrotation Xrotation
	JOINT left_hip
	{
		OFFSET 5.897982 -8.061495 -1.757422
		CHANNELS 3 Zrotation Yrotation Xrotation
		JOINT left_knee
		{
			OFFSET 4.235924 -39.106949 0.479504
			CHANNELS 3 Zrotation Yrotation Xrotation
			JOINT left_ankle
			{
				OFFSET -1.520927 -42.960662 -3.965739
				CHANNELS 3 Zrotation Yrotation Xrotation
				JOINT left_foot
				{
					OFFSET 4.043329 -5.887061 11.600092
					CHANNELS 3 Zrotation Yrotation Xrotation
					End Site
					{
						OFFSET 0.000000 0.000000 0.000000
					}
				}
			}
		}
	}
	JOINT right_hip
	{
		OFFSET -6.126015 -9.021893 -0.948572
		CHANNELS 3 Zrotation Yrotation Xrotation
		JOINT right_knee
		{
			OFFSET -4.227982 -38.728371 -1.113714
			CHANNELS 3 Zrotation Yrotation Xrotation
			JOINT right_ankle
			{
				OFFSET 1.814831 -42.098404 -3.837930
				CHANNELS 3 Zrotation Yrotation Xrotation
				JOINT right_foot
				{
					OFFSET -3.449752 -5.732798 12.435362
					CHANNELS 3 Zrotation Yrotation Xrotation
					End Site
					{
						OFFSET 0.000000 0.000000 0.000000
					}
				}
			}
		}
	}
	JOINT spine1
	{
		OFFSET 0.510549 12.361641 -4.128883
		CHANNELS 3 Zrotation Yrotation Xrotation
		JOINT spine2
		{
			OFFSET 0.267189 12.109670 2.145909
			CHANNELS 3 Zrotation Yrotation Xrotation
			JOINT spine3
			{
				OFFSET -0.186527 4.655315 0.403473
				CHANNELS 3 Zrotation Yrotation Xrotation
				JOINT neck
				{
					OFFSET -1.172262 18.310058 -3.700787
					CHANNELS 3 Zrotation Yrotation Xrotation
					JOINT head
					{
						OFFSET 0.972357 6.653512 4.938569
						CHANNELS 3 Zrotation Yrotation Xrotation
						End Site
						{
							OFFSET 0.000000 0.000000 0.000000
						}
					}
				}
				JOINT left_collar
				{
					OFFSET 6.079941 10.614215 -2.889636
					CHANNELS 3 Zrotation Yrotation Xrotation
					JOINT left_shoulder
					{
						OFFSET 11.011587 4.001903 -1.364555
						CHANNELS 3 Zrotation Yrotation Xrotation
						JOINT left_elbow
						{
							OFFSET 24.110469 -1.090622 -2.086970
							CHANNELS 3 Zrotation Yrotation Xrotation
							JOINT left_wrist
							{
								OFFSET 25.343057 1.217053 -0.785212
								CHANNELS 3 Zrotation Yrotation Xrotation
								JOINT left_index1
								{
									OFFSET 9.762576 -1.051653 2.008870
									CHANNELS 3 Zrotation Yrotation Xrotation
									JOINT left_index2
									{
										OFFSET 3.042251 0.163841 0.352468
										CHANNELS 3 Zrotation Yrotation Xrotation
										JOINT left_index3
										{
											OFFSET 2.139545 -0.257041 0.075826
											CHANNELS 3 Zrotation Yrotation Xrotation
											End Site
											{
												OFFSET 0.000000 0.000000 0.000000
											}
										}
									}
								}
								JOINT left_middle1
								{
									OFFSET 10.494204 -0.755202 -0.215392
									CHANNELS 3 Zrotation Yrotation Xrotation
									JOINT left_middle2
									{
										OFFSET 2.939913 0.038615 -0.338261
										CHANNELS 3 Zrotation Yrotation Xrotation
										JOINT left_middle3
										{
											OFFSET 2.253731 -0.219119 -0.302851
											CHANNELS 3 Zrotation Yrotation Xrotation
											End Site
											{
												OFFSET 0.000000 0.000000 0.000000
											}
										}
									}
								}
								JOINT left_pinky1
								{
									OFFSET 8.099493 -1.395786 -4.122976
									CHANNELS 3 Zrotation Yrotation Xrotation
									JOINT left_pinky2
									{
										OFFSET 1.588494 -0.022075 -1.022052
										CHANNELS 3 Zrotation Yrotation Xrotation
										JOINT left_pinky3
										{
											OFFSET 1.569226 -0.137738 -0.932253
											CHANNELS 3 Zrotation Yrotation Xrotation
											End Site
											{
												OFFSET 0.000000 0.000000 0.000000
											}
										}
									}
								}
								JOINT left_ring1
								{
									OFFSET 9.363512 -0.947237 -2.479475
									CHANNELS 3 Zrotation Yrotation Xrotation
									JOINT left_ring2
									{
										OFFSET 2.718245 0.093336 -0.335961
										CHANNELS 3 Zrotation Yrotation Xrotation
										JOINT left_ring3
										{
											OFFSET 2.196763 -0.191392 -0.555586
											CHANNELS 3 Zrotation Yrotation Xrotation
											End Site
											{
												OFFSET 0.000000 0.000000 0.000000
											}
										}
									}
								}
								JOINT left_thumb1
								{
									OFFSET 3.908524 -2.187312 2.620754
									CHANNELS 3 Zrotation Yrotation Xrotation
									JOINT left_thumb2
									{
										OFFSET 1.692896 0.313464 2.397247
										CHANNELS 3 Zrotation Yrotation Xrotation
										JOINT left_thumb3
										{
											OFFSET 2.049485 -0.238407 1.456016
											CHANNELS 3 Zrotation Yrotation Xrotation
											End Site
											{
												OFFSET 0.000000 0.000000 0.000000
											}
										}
									}
								}
							}
						}
					}
				}
				JOINT right_collar
				{
					OFFSET -6.973469 10.410002 -3.155909
					CHANNELS 3 Zrotation Yrotation Xrotation
					JOINT right_shoulder
					{
						OFFSET -9.927595 4.102343 -0.377008
						CHANNELS 3 Zrotation Yrotation Xrotation
						JOINT right_elbow
						{
							OFFSET -24.413272 -0.970555 -2.817137
							CHANNELS 3 Zrotation Yrotation Xrotation
							JOINT right_wrist
							{
								OFFSET -25.669040 0.876510 -0.796829
								CHANNELS 3 Zrotation Yrotation Xrotation
								JOINT right_index1
								{
									OFFSET -9.722435 -0.868763 2.470782
									CHANNELS 3 Zrotation Yrotation Xrotation
									JOINT right_index2
									{
										OFFSET -3.153576 0.252305 0.236635
										CHANNELS 3 Zrotation Yrotation Xrotation
										JOINT right_index3
										{
											OFFSET -2.183579 -0.214615 -0.049470
											CHANNELS 3 Zrotation Yrotation Xrotation
											End Site
											{
												OFFSET 0.000000 0.000000 0.000000
											}
										}
									}
								}
								JOINT right_middle1
								{
									OFFSET -10.536858 -0.498666 0.083143
									CHANNELS 3 Zrotation Yrotation Xrotation
									JOINT right_middle2
									{
										OFFSET -2.979276 0.139778 -0.369162
										CHANNELS 3 Zrotation Yrotation Xrotation
										JOINT right_middle3
										{
											OFFSET -2.260730 -0.173198 -0.351342
											CHANNELS 3 Zrotation Yrotation Xrotation
											End Site
											{
												OFFSET 0.000000 0.000000 0.000000
											}
										}
									}
								}
								JOINT right_pinky1
								{
									OFFSET -8.227848 -1.284248 -3.981338
									CHANNELS 3 Zrotation Yrotation Xrotation
									JOINT right_pinky2
									{
										OFFSET -1.576650 -0.057440 -1.066747
										CHANNELS 3 Zrotation Yrotation Xrotation
										JOINT right_pinky3
										{
											OFFSET -1.561792 -0.148589 -0.963283
											CHANNELS 3 Zrotation Yrotation Xrotation
											End Site
											{
												OFFSET 0.000000 0.000000 0.000000
											}
										}
									}
								}
								JOINT right_ring1
								{
									OFFSET -9.459417 -0.732482 -2.317409
									CHANNELS 3 Zrotation Yrotation Xrotation
									JOINT right_ring2
									{
										OFFSET -2.727182 0.188709 -0.432246
										CHANNELS 3 Zrotation Yrotation Xrotation
										JOINT right_ring3
										{
											OFFSET -2.207611 -0.169508 -0.658823
											CHANNELS 3 Zrotation Yrotation Xrotation
											End Site
											{
												OFFSET 0.000000 0.000000 0.000000
											}
										}
									}
								}
								JOINT right_thumb1
								{
									OFFSET -3.639916 -2.134544 3.028476
									CHANNELS 3 Zrotation Yrotation Xrotation
									JOINT right_thumb2
									{
										OFFSET -1.643028 0.114594 2.528374
										CHANNELS 3 Zrotation Yrotation Xrotation
										JOINT right_thumb3
										{
											OFFSET -2.050698 -0.449530 1.536576
											CHANNELS 3 Zrotation Yrotation Xrotation
											End Site
											{
												OFFSET 0.000000 0.000000 0.000000
											}
										}
									}
								}
							}
						}
					}
				}
			}
		}
	}
}
MOTION
Frames: 7
Frame Time: 0.033333
2.735114 27.576132 16.060571 121.385095 82.376254 82.337655 30.849359 -1.381181 -58.895863 4.727938 21.576541 153.066727 7.119272 10.993524 -53.762191 0.000000 0.000000 0.000000 -42.208820 -18.169490 -64.164792 2.339119 -5.326128 151.903740 -4.708313 0.995464 -46.638570 0.000000 0.000000 0.000000 -3.569110 -3.550246 89.373942 -2.922192 -3.036016 -17.123765 -2.961591 -1.981028 10.869420 -1.867079 15.333925 12.788653 -0.762154 -6.987440 -22.101498 26.752169 -23.093976 -17.033333 -47.899028 -37.752986 10.428841 -105.158397 -64.699820 171.221879 0.775596 -0.324956 -46.902492 -23.703990 3.695559 5.717980 -43.457328 -1.176958 7.020968 -10.564232 -5.690603 -5.016601 -30.449090 1.028800 -7.210480 -40.472356 0.119635 -8.638027 -19.366250 -5.374333 -0.192803 -33.066759 -18.151517 -21.725087 -28.530483 -6.643573 -10.882089 -3.825712 -4.209091 -21.060487 -36.116796 -7.082321 -6.106953 -35.336047 -8.344046 -15.321775 -20.788305 -9.227919 -8.528551 1.813288 16.108208 49.349248 2.533913 2.200045 -28.598284 -14.506176 6.617648 30.042897 -29.492416 25.056577 -20.561529 76.046264 62.700016 26.300456 -8.841128 20.750373 58.863273 -17.612264 15.392702 21.289610 23.703990 -3.695559 5.717980 43.457328 1.176958 7.020968 10.564232 5.690603 -5.016601 30.449090 -1.028800 -7.210480 40.472356 -0.119635 -8.638027 19.366250 5.374333 -0.192803 33.066759 18.151517 -21.725087 28.530483 6.643573 -10.882089 3.825712 4.209091 -21.060487 36.116796 7.082321 -6.106953 35.336047 8.344046 -15.321775 20.788305 9.227919 -8.528551 -1.813288 -16.108208 49.349248 -2.533913 -2.200045 -28.598284 14.506176 -6.617648 30.042897 
2.803147 27.040102 16.072935 123.213160 82.209355 83.296696 31.115127 -1.387995 -58.459453 4.559931 21.721366 153.626563 7.257547 11.194700 -53.869086 0.000000 0.000000 0.000000 -42.470311 -17.929517 -64.007570 2.712428 -5.808681 152.358672 -5.026548 -0.585020 -46.738762 0.000000 0.000000 0.000000 -3.564774 -3.755676 89.748595 -3.082679 -2.839803 -16.315048 -3.032027 -1.857081 10.847692 -1.702280 14.848646 13.925932 -0.507986 -6.750890 -22.248087 26.953205 -22.551999 -16.870150 -47.537160 -38.292522 10.019028 -106.451207 -66.067082 171.859697 2.187168 -0.007670 -46.786712 -23.703990 3.695559 5.717980 -43.457328 -1.176958 7.020968 -10.564232 -5.690603 -5.016601 -30.449090 1.028800 -7.210480 -40.472356 0.119635 -8.638027 -19.366250 -5.374333 -0.192803 -33.066759 -18.151517 -21.725087 -28.530483 -6.643573 -10.882089 -3.825712 -4.209091 -21.060487 -36.116796 -7.082321 -6.106953 -35.336047 -8.344046 -15.321775 -20.788305 -9.227919 -8.528551 1.813288 16.108208 49.349248 2.533913 2.200045 -28.598284 -14.506176 6.617648 30.042897 -30.032394 25.007485 -20.441144 73.359699 63.893872 24.434206 -9.442009 19.224964 57.817476 -18.295346 15.353287 21.371741 23.703990 -3.695559 5.717980 43.457328 1.176958 7.020968 10.564232 5.690603 -5.016601 30.449090 -1.028800 -7.210480 40.472356 -0.119635 -8.638027 19.366250 5.374333 -0.192803 33.066759 18.151517 -21.725087 28.530483 6.643573 -10.882089 3.825712 4.209091 -21.060487 36.116796 7.082321 -6.106953 35.336047 8.344046 -15.321775 20.788305 9.227919 -8.528551 -1.813288 -16.108208 49.349248 -2.533913 -2.200045 -28.598284 14.506176 -6.617648 30.042897 
2.802410 26.740502 16.031594 125.851980 82.150634 85.101074 30.734903 -1.943524 -58.013389 4.503751 21.918605 153.847518 7.014290 11.918716 -54.265251 0.000000 0.000000 0.000000 -42.555775 -17.872481 -63.454430 3.071841 -6.261458 152.382431 -4.883674 -1.816680 -47.073934 0.000000 0.000000 0.000000 -3.416968 -4.291172 90.361399 -3.358401 -2.533782 -15.816247 -3.308880 -1.674501 11.312526 -1.455218 14.075425 14.874153 -0.579784 -7.073819 -21.952909 26.377156 -21.721726 -17.036532 -46.731546 -39.267833 9.828214 -108.501304 -68.200953 173.897424 1.543765 -0.098126 -46.887219 -23.703990 3.695559 5.717980 -43.457328 -1.176958 7.020968 -10.564232 -5.690603 -5.016601 -30.449090 1.028800 -7.210480 -40.472356 0.119635 -8.638027 -19.366250 -5.374333 -0.192803 -33.066759 -18.151517 -21.725087 -28.530483 -6.643573 -10.882089 -3.825712 -4.209091 -21.060487 -36.116796 -7.082321 -6.106953 -35.336047 -8.344046 -15.321775 -20.788305 -9.227919 -8.528551 1.813288 16.108208 49.349248 2.533913 2.200045 -28.598284 -14.506176 6.617648 30.042897 -30.142023 24.565543 -20.222430 66.560205 65.355957 20.796117 -7.819951 17.848458 58.549777 -18.383052 13.906857 19.832458 23.703990 -3.695559 5.717980 43.457328 1.176958 7.020968 10.564232 5.690603 -5.016601 30.449090 -1.028800 -7.210480 40.472356 -0.119635 -8.638027 19.366250 5.374333 -0.192803 33.066759 18.151517 -21.725087 28.530483 6.643573 -10.882089 3.825712 4.209091 -21.060487 36.116796 7.082321 -6.106953 35.336047 8.344046 -15.321775 20.788305 9.227919 -8.528551 -1.813288 -16.108208 49.349248 -2.533913 -2.200045 -28.598284 14.506176 -6.617648 30.042897 
2.779399 26.661507 15.955616 125.164489 81.909976 84.161690 31.346564 -1.611140 -57.846367 4.764419 22.062812 154.211683 7.318870 10.776646 -54.121372 0.000000 0.000000 0.000000 -43.107672 -18.206072 -63.400472 3.025634 -6.067580 152.100503 -5.310149 -1.603044 -46.968954 0.000000 0.000000 0.000000 -3.281840 -4.346655 90.603757 -3.650485 -2.429610 -15.371372 -3.350298 -1.167504 11.489958 -2.007901 13.423439 16.018124 0.226475 -7.556907 -21.988643 26.414291 -21.321816 -17.892714 -47.790495 -39.972622 9.897620 -109.181502 -69.968514 173.100828 1.743305 0.028327 -46.226900 -23.703990 3.695559 5.717980 -43.457328 -1.176958 7.020968 -10.564232 -5.690603 -5.016601 -30.449090 1.028800 -7.210480 -40.472356 0.119635 -8.638027 -19.366250 -5.374333 -0.192803 -33.066759 -18.151517 -21.725087 -28.530483 -6.643573 -10.882089 -3.825712 -4.209091 -21.060487 -36.116796 -7.082321 -6.106953 -35.336047 -8.344046 -15.321775 -20.788305 -9.227919 -8.528551 1.813288 16.108208 49.349248 2.533913 2.200045 -28.598284 -14.506176 6.617648 30.042897 -29.720930 25.258294 -19.646959 63.442153 64.846282 16.982458 -10.009927 16.577558 57.283589 -17.576860 14.227122 25.140396 23.703990 -3.695559 5.717980 43.457328 1.176958 7.020968 10.564232 5.690603 -5.016601 30.449090 -1.028800 -7.210480 40.472356 -0.119635 -8.638027 19.366250 5.374333 -0.192803 33.066759 18.151517 -21.725087 28.530483 6.643573 -10.882089 3.825712 4.209091 -21.060487 36.116796 7.082321 -6.106953 35.336047 8.344046 -15.321775 20.788305 9.227919 -8.528551 -1.813288 -16.108208 49.349248 -2.533913 -2.200045 -28.598284 14.506176 -6.617648 30.042897 
2.635570 26.808611 15.860023 123.954199 81.652542 83.039312 31.031849 -1.690106 -57.765786 4.994818 22.260147 154.127453 7.327643 10.576513 -54.124398 0.000000 0.000000 0.000000 -43.440742 -18.697579 -63.565567 3.122586 -6.066336 151.723384 -5.421197 -1.203251 -46.846267 0.000000 0.000000 0.000000 -2.876838 -4.417305 90.593625 -4.040594 -2.182605 -14.757205 -3.559449 -0.991290 11.621302 -2.288759 12.689647 17.733659 0.595397 -8.173643 -22.142019 25.937755 -21.320713 -18.303629 -48.147373 -40.948082 9.806051 -110.492370 -72.093526 174.643490 0.984631 -0.721705 -46.427738 -23.703990 3.695559 5.717980 -43.457328 -1.176958 7.020968 -10.564232 -5.690603 -5.016601 -30.449090 1.028800 -7.210480 -40.472356 0.119635 -8.638027 -19.366250 -5.374333 -0.192803 -33.066759 -18.151517 -21.725087 -28.530483 -6.643573 -10.882089 -3.825712 -4.209091 -21.060487 -36.116796 -7.082321 -6.106953 -35.336047 -8.344046 -15.321775 -20.788305 -9.227919 -8.528551 1.813288 16.108208 49.349248 2.533913 2.200045 -28.598284 -14.506176 6.617648 30.042897 -29.351843 25.523399 -18.896334 59.050848 64.774194 13.360978 -10.417332 14.560734 57.843781 -18.942759 14.334688 26.313591 23.703990 -3.695559 5.717980 43.457328 1.176958 7.020968 10.564232 5.690603 -5.016601 30.449090 -1.028800 -7.210480 40.472356 -0.119635 -8.638027 19.366250 5.374333 -0.192803 33.066759 18.151517 -21.725087 28.530483 6.643573 -10.882089 3.825712 4.209091 -21.060487 36.116796 7.082321 -6.106953 35.336047 8.344046 -15.321775 20.788305 9.227919 -8.528551 -1.813288 -16.108208 49.349248 -2.533913 -2.200045 -28.598284 14.506176 -6.617648 30.042897 
2.468046 27.127902 15.816372 123.002891 82.021459 82.630419 30.922585 -1.249663 -58.065481 5.201447 21.675923 153.694511 7.293202 10.266666 -53.964843 0.000000 0.000000 0.000000 -43.683610 -19.019177 -63.266506 2.378741 -5.874035 151.291732 -5.632590 0.091069 -47.157192 0.000000 0.000000 0.000000 -2.371611 -4.812696 90.973289 -4.542904 -1.867914 -15.146504 -3.715383 -0.348928 11.835626 -3.280502 11.392658 20.370169 1.261130 -8.691534 -22.358889 25.785949 -21.516545 -19.440588 -49.839897 -41.107656 9.768696 -112.284323 -73.472217 177.843932 -1.944741 -1.613100 -45.556287 -23.703990 3.695559 5.717980 -43.457328 -1.176958 7.020968 -10.564232 -5.690603 -5.016601 -30.449090 1.028800 -7.210480 -40.472356 0.119635 -8.638027 -19.366250 -5.374333 -0.192803 -33.066759 -18.151517 -21.725087 -28.530483 -6.643573 -10.882089 -3.825712 -4.209091 -21.060487 -36.116796 -7.082321 -6.106953 -35.336047 -8.344046 -15.321775 -20.788305 -9.227919 -8.528551 1.813288 16.108208 49.349248 2.533913 2.200045 -28.598284 -14.506176 6.617648 30.042897 -29.137067 26.686045 -18.206220 53.623299 62.651837 7.521684 -10.428097 14.533096 59.229411 -19.149500 14.866388 29.341746 23.703990 -3.695559 5.717980 43.457328 1.176958 7.020968 10.564232 5.690603 -5.016601 30.449090 -1.028800 -7.210480 40.472356 -0.119635 -8.638027 19.366250 5.374333 -0.192803 33.066759 18.151517 -21.725087 28.530483 6.643573 -10.882089 3.825712 4.209091 -21.060487 36.116796 7.082321 -6.106953 35.336047 8.344046 -15.321775 20.788305 9.227919 -8.528551 -1.813288 -16.108208 49.349248 -2.533913 -2.200045 -28.598284 14.506176 -6.617648 30.042897 
2.371441 27.395327 15.821388 122.713529 82.173872 82.666893 30.807652 -0.903168 -58.209552 5.037692 21.757789 153.248064 7.287501 10.272471 -53.681225 0.000000 0.000000 0.000000 -43.278015 -19.644276 -63.485297 2.215218 -6.092215 151.328669 -5.926298 -0.084671 -46.529895 0.000000 0.000000 0.000000 -2.132680 -4.836657 91.064149 -4.840973 -1.678574 -15.237296 -3.584894 -0.047343 12.432499 -4.454240 10.911898 22.195707 1.811181 -8.559723 -22.630227 25.804059 -21.694423 -20.303741 -50.479568 -41.223940 9.573781 -115.401204 -74.482435 -178.283333 -3.711353 -1.566960 -45.725852 -23.703990 3.695559 5.717980 -43.457328 -1.176958 7.020968 -10.564232 -5.690603 -5.016601 -30.449090 1.028800 -7.210480 -40.472356 0.119635 -8.638027 -19.366250 -5.374333 -0.192803 -33.066759 -18.151517 -21.725087 -28.530483 -6.643573 -10.882089 -3.825712 -4.209091 -21.060487 -36.116796 -7.082321 -6.106953 -35.336047 -8.344046 -15.321775 -20.788305 -9.227919 -8.528551 1.813288 16.108208 49.349248 2.533913 2.200045 -28.598284 -14.506176 6.617648 30.042897 -29.555483 27.406957 -17.628776 46.146858 60.530550 1.972466 -6.987502 15.754337 61.578400 -19.396025 13.328282 27.632388 23.703990 -3.695559 5.717980 43.457328 1.176958 7.020968 10.564232 5.690603 -5.016601 30.449090 -1.028800 -7.210480 40.472356 -0.119635 -8.638027 19.366250 5.374333 -0.192803 33.066759 18.151517 -21.725087 28.530483 6.643573 -10.882089 3.825712 4.209091 -21.060487 36.116796 7.082321 -6.106953 35.336047 8.344046 -15.321775 20.788305 9.227919 -8.528551 -1.813288 -16.108208 49.349248 -2.533913 -2.200045 -28.598284 14.506176 -6.617648 30.042897 
